<svg xmlns="http://www.w3.org/2000/svg" width="1075" height="975" viewBox="0 0 1075 975"><path fill="#004a87" d="m728 703-13 2c-2 2-8 1-8 0s-19-2-21-1h-2l-5-1h-2q2 1-1 1l-3-1h-3l-11-2-10-1-4-1c-3-2-13-4-17-4l-6-1-14-6-15-6c-3 0-14-6-17-8q-3-3-5-1t-5-1l-4-3-8-8-3-3-4-1-4-3c-2 0-7-4-7-6s-6-7-7-6q-4 0-4-4l-2-3-2-2-13-13c-3-1-9-10-9-13q0-4-3-7a95 95 0 0 1-13-30q-2 0-4-10l-1-5-3-11-2-11-1-3v-3q-3-3 0-6v-7c-3-5-3-16-1-18v-5q-2-5 1-6l2-10 1-8 1-5 2-5 2-5 1-4 2-5 3-4q2 0 2-2l1-6 6-12 2-3 11-14 2-4q0-3 2-3l2-2 2-2 3-3 4-4 3-3 2-3 3-1q-1-3 2-2 2 2 3-1v-3l2-1 5-3 7-5 5-3 4-3 2-2q0-3 2-1h3l1-2h2l4-1 5-2 8-3q4-4 9-3l5-1 5-2 5-1 5-1 4-1 9-1 9-2c4-2 29 1 32 4h8q0 2 8 1 5 0 3 1-1 3 6 3l9 3q4 4 7 3l5 3 5 2q3 0 5 3l4 3q6 1 5 3 0 2 3 2l9 7c0 2 5 7 7 7 1 0 7 7 7 10l3 2 3 4 4 8 3 6 2 3v5q-2 4 1 4 2 0 2 3 1 7 4 10 2 2 3 8c1 20 1 21-1 23q-2 1-2 7l-1 7c-1 2-2 9-1 10q2 2-1 3-3 3-2 6 3 3-1 3c-2 0-5 5-5 7l-5 9-1 3q1 3-2 5l-5 2-3 4q0 3-2 3l-1 1-2 2-5 5-7 6-3 2q0 1-5 2l-6 4-2 2-5 1-5 2-6 2-5 2-4 2-11 1q-10 0-8 1t-3 1l-4-1-2-1-2-1h-4l-2 1q-1 2-4-1l-7-2-10-3-6-3-3-2-3-2q-3 0-10-7l-6-7-1-2-2-3-3-4-2-3-2-2-2-4c0-4-4-14-5-14v-7l-1-13q0-12 2-10 2-1 3 1t2-1l-1-1-1-1q-1-4 6-12l2-4 3-5q4-5 8-5l4-2q2-3 6-4l5-2 4-1h2l8-1q8 0 6 1l7 1q8-2 6 1 0 2 2 2 3-1 3 1l2 2 11 7v2h-7l-1-1q1-3-5-3h-11q-9 0-15 2l-9 4-5 2q-3 0-4 3l-1 2c-2 0-7 5-7 7l-2 3c-2 3-3 10-1 10l1 10-1 9-1 2 1 1 1 4 2 5 1 4 6 6q6 4 5 7l2 2 10 5c7 5 8 5 13 5h6l3 1 3 1h9l5-1 15-1 9-4 19-9 3-3 5-6 10-11c5-8 6-10 11-15q2-1 1-5 0-4 2-6l2-5 1-6-1-3v-5l1-17c0-11 0-13-3-19l-6-13-3-5-5-7q-6-6-6-11h-6c0-2-9-10-11-10l-2 1-2-1-3-3q-4 0-3-4t-3-2q0 2-17-4a94 94 0 0 0-29-6l-7-1h-4l-32 1-9 1q-1-1-3 1h-2l-2 1-2 1a213 213 0 0 0-39 15l-2 2-4 2-2 1-3 1-2 2-3 2q-4 1-3 3l-4 3q-7 3-12 12l-3 4q-2 0-2 2l-1 2-2 3-5 8-4 5-2 4-2 4-1 3-4 10-4 11-1 5v5q3-1 1 5l-2 7c-3 3-3 10 0 11q2 1-1 6v3l1 5 1 4 1 1-1 1q-2 0-2 3t1 1h1l-1 1c-1 1 0 9 2 10v4q0 6 3 8l1 4c1 4 5 12 7 12q3 1 1 4-2 1 2 6 3 4 3 7l2 3 8 9 4 5 4 6 3 3 3 1 1 2v2l3 2q7 3 8 6c-1 1 6 6 7 6l3 2q4 5 14 9l8 4 5 2q3 0 3 2 3 2 4 0l4 1 4 3q-1 2 9 5l9 3c4 2 6 2 15 2q9 0 14 3 2 3 5 1l8 1c6 2 19 2 19 1l2-1a431 431 0 0 0 75-4l6-1 12-2 10-3 11-5 3-1 4-1q0-2 2-1l5-2 4-2q4 0 6-2l2-1 5-2 6-5 8-4 5-3 3-3 2-2 3-2 5-4 5-3 4-3 5-4 5-4q3 0 3-2h1l1-2 1-5h3q3 0 2-2c-1-2 2-6 3-4l1-1 1-3 5-6q5-9 9-10l2-4 4-6 7-10 2-4q3-2 3-5l3-5q4-3 2-5t1-2 4-9l2-4c3-2 5-11 3-12v-1h3c1 0 2-7 0-7v-2q0-2 2-1l2-2v-8l-1-1 1-1q4-1 4-7-2-2 1-4l1-7 1-7 1-5v-18l-1-4-1-4-1-3 2-1v-7l-1-1v-5l-1-5-1-2q-1-2 1-2 4 0 3-4l-2-2h-2v2l-1 3q-2 1-2-9l-1-8-1-5-1-6-2-3-3-7-3-9-3-11-1-2-1-4q-2-3-1-5l-2-3-4-7-2-5-5-7-4-7-3-4-6-8-4-6-2-2-3-4q0-3-2-3l-1-2q0-4-3-4-5-1-7-6l-3-3-1-1-4-3q-4-1-5-5c1-1-3-4-4-4q-2 1-2-1 0-1-3-2l-3-2c-4-5-12-11-14-11l-7-3-4-3-3-3-12-6q-7-3-9-6l-5-2-9-4-11-4-6-2-9-3-9-3-3-1-4-1-9-2q-8 1-9-1l-6-2-6-2-4-1c-3 1-13-1-15-2h-8q-1 1-3-1l-7-2h-23l-5-1q2-1-7-1-7 0-6 1 4 2-5 2-11 0-5-2 1-1-7-1-9 0-7 1t-7 1h-8c-1 1-15 2-18 1q-3-2-5 1c-2 2-19 5-26 5q-5 0-7 2-1 2-3 1l-7 2-9 3-10 3-9 3q-2 0-5 2l-9 4-6 3q-1 3-4 2h-3l-3 1-6 4-6 3-3 1-22 11q0 4-6 5l-8 5-6 4-8 6-6 5q-6 4-9 4l-2 2q-1 3-2 2-2 0-2 2l-1 2q-4-1-5 3l-1 1c-2 0-10 7-10 9l-2 1-2 2-1 2-1-1h-1l-3 4q-1 3-5 5-4 1-5 4 0 3-2 3c-2 0-8 6-9 9l-2 2-1 1-2 2c-1-1-4 3-3 3l-1 1q-3 0-3 3 1 2-3 3l-3 4q-1 3-2 2-1-2-1 1l-3 3q-3 2-5 7t-5 5l-3 3-1 2-1 2-3 2-2 2q1 4-2 3l-1 2-4 6-4 4-4 4q-4 3-3 5 1 3-2 5l-3 4-1 1q-4-2-4 3 2 3-3 6-3 2-3 5l-2 2q-4 1-3 5l-2 5q-3 1-3 3l-2 2-1 5v2q-3 1-4 3l-5 7-4 8-2 2-2 4-2 6-1 4-1 1q-1 0-2 3l-4 3-1 4-1 3v2h-5l-2 1 1 2 2 1q3 1 0 5-1 3-2 3-4-1-4 4-1 6-6 5-4 1 0 2c4 2 3 9-1 10-2 1-5 7-3 7v1c-4 3-9 13-9 18q-2 5 1 4t4 1h7q4 3 9-1h2l6 1 5 2 5 1q5 1 6 4l3 2 6 1 4 6 5 5 2 1q-1 4 4 8l2 4 2 1q3 0 3 4l1 3 7 2q6 5 14 6l4 1c-2 3 33 1 38-2l8-1c10 1 20 3 22 5l3 1q3 0 11 11l10 14 4 6 4 6q0 2 3 2l4 3q1 2 8 5l9 3h13l6-1c2 1-4 7-6 7l-5 3q-4 4-6 3v1l-1 2h-1l-11-1-13-1-1-2-2-2-3-2q-4 0-7-3l-5-4q-3 0-4-4l-2-4-8-9c0-3-11-11-16-11l-2-2c-1-1-8-3-9-1-1 1-7 0-9-3q-4-2-6 2l-3 2-2 1q-1 2-21 2l-8 2q-4 2-6 0l-3-2-4-1-3-1-6-2-5-3-4-4-5-4q-3 0-3-2c0-2-5-9-7-9l-3-3c-2-4-8-10-9-9l-1-2q-2-2-11-6-10-5-14-5l-9-1h-5l-3 1-2 1h-1c0-1-6-2-9-1l-6 1-14 2h-5l2-2q3-1 2-4-2-3 1-4l3-5 8-19 2-4 3-4 2-4 2-4 2-4 1-4v-2q3 0 3-4l1-3 2-4 3-4q2-2 1-4t2-2 2-4 1-3l2-3 2-4 1-3 2-4q2 0 2-3l3-6 10-21q2-2 3-2 4 1 2-1-1-4 2-7l13-23c1 0 6-7 5-8l2-3 2-4 2-4 4-5 10-17q3-2 4-6 3-7 7-9l2-3 1-2q2-1 3-4l5-7 11-15 2-1 1-2q1-5 6-8l2-3 4-4 5-6 3-3 6-6q-1-2 5-5l3-3c1-2 5-7 7-7s8-6 8-7l1-3h4l3 2q3-2 1-3c-4 0 2-8 10-13l5-4 2-2q4 1 4-2l3-3 11-8 4-3 4-3 2-1 2-1 1-1 1-1q2-5 8-5l3-2 7-6 10-4q1 1 3-2l4-3q2 0 3-3l3-2 3-1 4-4 3-1 4-1 6-3 5-3 4-1 2-1c0-1 7-5 10-5l3-2 2-3h2q0 3 1 1h2l5-2 6-3 8-2q5 1 6-2 0-3 3-1 4 1 5-2c2-2 9-5 13-5l4-1 9-2 12-4c0-1 10-3 13-2l4-1q5-3 17-3l4-1v-1l2 1h1q0-3 10-2 9 1 17-1l24-2 27 1 7 1h9l4 1 4 1h4l10 2c12 0 11 0 13 2h7c6 0 21 3 23 6l8 3 14 4 16 8h4q3-1 6 2 2 2 4 1l1 1v1l4 3 7 3 4 1 4 3 6 3 3 2 5 2q2 3 6 4l4 4 6 4 7 5 4 3 2 1c1 2 7 8 10 9l4 3 4 4 3 3q0 3 2 2l1 1q-1 4 2 4l5 4 6 7 3 4 4 5q5-2 3 3 0 3 2 3l2 2q0 3 3 4l2 4q2 6 6 6l1 1c-1 1 1 9 2 10 2 1 8 11 8 13l2 4 2 4q0 3 2 2 4 1 2 3c-1 1 1 8 3 12l2 4 2 3q3 0 1 4-1 3 1 5l1 5 2 4 1 5v5l1 6 2 5 1 10 2 10 1 5 1 3v1c-2 1-2 35 0 37v2q-2 3-2 9l-1 4-1 10-2 10-1 6-3 11v8l-3 3-3 6-1 3-1 4c0 3-3 13-6 15l-1 5-2 6c-3 2-4 7-2 7v1l-6 6-2 6-3 6-2 3q-4 1-3 7l-1 2q-4 1-5 5l-1 2q-3 0-3 2l-1 3q-2 0-2 3l-2 2-1 1c0 3-5 6-6 4q-3-2-3 1l1 1q4-1 4 2l-13 13q-3 1-4 5l-1 1-1 1-1 3q-3 0-6 4-3 2-1 2l-2 2-4 3-1 1c1 1-4 6-6 6q-2 0-3 3l-3 2-12 10-3 1-3 2-3 2-3 2-3 2-3 2-5 4-4 3q-5 4-8 3-5-2-3 2v2h-3l-4 2-1 1-2 1-3 1-4 2-4 4-12 3-6 1c-3 3-10 6-11 5-2 0-13 3-14 5l-7 3-13 1zM197 825q-1 4-2 2l-4-1q-3 0-3-2v-2q3-1 0-5-2-1-2-10l-1-11v-5q1-3-2-5-2-2-1-7 2-5-1-6l-3-8v-19q-2-3-1-7 0-3-2-6v-4l1-3q0-3 1-1l6 2 9 5q6 4 8 2 2-1 5 2 4 4 6 2 3-1 6 2l7 3 6 2 3 2c3 0 17 6 17 7l3 1 7 2 8 2q7 1 4 4l-2 3-1 2-1-2q0-2-2-2-5 1-1 3 4 1-2 5c-18 13-22 16-23 19l-3 2-1 1-3 3-8 6q-5 6-8 5-3 0-3 2l-2 4c-3 3-11 9-13 9q-2 0-2 2m256-187h-5l4-3q3 1 1 3m8-454q-3 3 1 1 3 0 3-2t-4 1m-44 460q1 2 2 0l-1-1zm443-460 1 1 1-1-2-1zm24 70 1 1 1-1-1-1zM524 604l1 1 1-1-1-1zm-153 14 1 1 1-1-1-1zm486 4 1 1 1-1-1-1z"/><path fill="#044983" d="M215 503q1-4-2-7-4-1 0-2 4 1 6-5 0-5 4-4 1 0 2-3 3-4 0-5l-2-1-1-2 2-1h5v-2l1-3 1-4 4-3q1-3 2-3l1-1 1-4 2-6 2-4 2-2 4-8 5-7q1-2 4-3v-2l1-5 2-2q0-2 3-3l2-5q-1-4 3-5l2-2q0-3 3-5 5-3 3-6 0-4 4-3l1-1 3-4q3-3 2-5t3-5l4-4 4-4 4-6 1-2q3 1 2-3l2-2 3-2 1-2 1-2 3-3q2 0 5-5 2-5 5-7l3-3q0-3 1-1 1 1 2-2l3-4q4-1 3-3 0-3 3-3l1-1c-1 0 2-4 3-3l2-2 1-1 2-2c1-3 7-9 9-9q2 0 2-3 1-3 5-4 4-2 5-5l3-4h1l1 1 1-2 2-2 2-1c0-2 8-9 10-9l1-1q1-4 5-3l1-2q0-2 2-2 1 1 2-2l2-2q3 0 9-4l6-5 8-6 6-4 8-5q6-1 6-5 2-3 5-2l3-1 7-4 28-13q3 1 4-2l6-3 9-4q3-3 5-2l9-3 10-3 9-3 7-2q2 1 3-1 2-3 7-2c7 0 24-3 26-5q2-3 5-1c3 1 17 0 18-1h8q9 0 7-1t7-1q8 0 7 1-6 2 5 2 9 0 5-2-1-1 6-1 9 0 7 1l5 1h23l7 2q2 2 3 1h8c2 1 12 3 15 2l4 1 6 2 6 2q1 2 9 1l9 2 4 1 3 1 9 3 9 3 6 2 11 4 9 4 5 2q2 3 9 6l12 6 3 3 4 3 7 3c2 0 10 6 14 11l3 2q3 1 3 2 0 2 2 1c1 0 5 3 4 4q1 4 5 5l4 3 1 1 3 3q2 5 7 6 3 0 3 4l1 2q2 0 2 3l3 4 2 2 4 6 6 8 3 4 4 7 5 7 2 5 4 7 2 3q-1 2 1 5l1 4 1 2 3 11 3 9 3 7 2 3 1 6 1 5 1 8v4l-5-19-1-4-1-4-2-7-2-7-4-7a230 230 0 0 0-112-126q-8-6-14-9a364 364 0 0 0-122-31 449 449 0 0 0-87 0 340 340 0 0 0-151 51 536 536 0 0 0-177 177 680 680 0 0 0-56 99m544 198 5-2c1-2 12-5 14-5 1 1 8-2 11-5l6-1 12-3 8-6 3-1 2-1 1-1 4-2h3v-2q-2-4 3-2 3 1 8-3l4-3 5-4 3-2 3-2 3-2 3-2 3-2 3-1 12-10 3-2q1-3 3-3c2 0 7-5 6-6l1-1 4-3 2-2q-2 0 1-2 3-4 6-4l1-3 1-1 1-1q1-4 4-5l13-13q0-2-4-2l-1-1q0-3 3-1c1 2 6-1 6-4l1-1 2-2q0-3 2-3l1-3q0-2 3-2l1-2q1-4 5-5l1-2q-1-6 3-7l2-3 3-6 2-6 6-6v-1c-2 0-1-5 2-7l2-6 1-5c3-2 6-12 6-15l1-4 1-3 3-6 3-3v-8l3-11 1-6 2-10 1-10 1-4q-1-6 2-9v-2c-2-2-2-36 0-37v-1l-1-3-1-5-2-10-1-10-2-5-1-6v-5l-1-5-2-4-1-5q-2-2-1-5 2-4-1-4l-2-3-2-4c-2-4-4-11-3-12q2-2-2-3-2 1-2-2l-2-4-2-4c0-2-6-12-8-13-1-1-3-9-2-10l-1-1q-4 0-6-6l-2-4q-3-1-3-4l-2-2q-2 0-2-3 2-4-3-3l-4-5-3-4-6-7-5-4q-3 0-2-4l-1-1q-2 1-2-2l-3-3-4-4-4-3c-3-1-9-7-10-9l-2-1-4-3-7-5-6-4-4-4q-4-1-6-4l-5-2-3-2-6-3-4-3-4-1-7-3-4-3v-1l-1-1q-2 1-4-1-3-3-6-2h-4l-16-8-4-1-10-3-8-3-8-3 8 1 16 5 4 1 4 1 8 4a343 343 0 0 1 76 41q88 68 107 173a295 295 0 0 1-82 253 320 320 0 0 1-102 72 197 197 0 0 1-44 13M496 161l-2 3-3 2c-3 0-10 4-10 5l-2 1-4 1-5 3-6 3-4 1-3 1-4 4-3 1-3 2q-1 3-3 3l-4 3q-2 3-3 2l-10 4-7 6-3 2q-6 0-8 5l-1 1-1 1-2 1-2 1-4 3-4 3-11 8-3 3q0 3-4 2l-2 2-5 4c-8 5-14 13-10 13q3 1-1 3l-3-2h-4l-1 3c0 1-6 7-8 7s-6 5-7 7l-3 3q-6 3-5 5l-6 6-3 3-5 6-4 4-2 3q-5 2-6 8l-1 2-2 1-3 5-16 21-1 2-2 3q-4 2-7 9-1 4-4 6l-10 17-4 5-2 4-2 4-2 3c1 1-4 8-5 8l-2 2c0 3-9 18-11 21q-3 4-2 7 2 2-2 1-2 0-3 2l-10 21-3 6q0 3-2 3l-2 4-1 3-2 4-2 3q-2 0-1 3t-2 4-2 2-1 4l-3 4-2 4-1 3q0 4-3 4v2l-1 4-2 4-2 4-2 4-3 4-2 4-3 8-5 11-3 5q-3 1-1 4 1 3-2 4l-2 2h5l14-2 6-1c3-1 9 0 9 1h1l2-1 3-1h5l9 1q4 0 14 5 9 4 11 6l1 2c1-1 7 5 9 9l3 3c2 0 7 7 7 9q0 2 3 2l5 4 4 4 5 3 6 2 3 1 4 1 3 2 1 1q-11-1-20-6-3 0-28-28-12-13-28-16c-12-4-36-2-53 3l-7 1 9-21 2-5a1835 1835 0 0 1 127-224 556 556 0 0 1 205-160m100 487-3-1q-1 2-4 0 0-2-3-2l-5-2-8-4q-10-4-14-9l-3-2c-1 0-8-5-7-6q-1-3-8-6l-3-2v-2l-1-2-3-1-3-3-4-6-4-5-8-9-2-3q0-4-3-7-4-5-2-6 2-3-1-4c-2 0-6-8-7-12l-1-4q-3-2-3-8v-4c-2-1-3-9-2-10l1-1h-1q-1 2-1-1t2-3l1-1-1-1-1-4-1-5v-3q3-5 1-6c-3-1-3-8 0-11l2-7q2-6-1-5v-5l1-5 4-11 4-10 1-3 2-4 2-4 4-5 5-8 2-3 1-2q0-2 2-2l3-4q5-9 12-12l4-3q-1-2 3-3l3-2 2-2 3-1 2-1 4-2 2-2 3-2 4-2 4-2 12-5 18-5 2-1h2q2-2 3-1l9-1a142 142 0 0 1 36-1l7 1h8q6 1 21 6 17 6 17 4 4-2 3 2-2 3 3 4l3 3 2 1 2-1c2 0 11 8 11 10h6q0 5 6 11l5 7 3 5 3 3 3 10c3 6 3 8 3 19v3l-2-11c-1-7-2-9-7-19q-15-30-53-46c-7-3-23-6-35-8-14-2-43-1-56 2q-28 6-49 19c-9 5-25 19-32 27q-30 36-30 86c0 34 7 58 27 87a177 177 0 0 0 73 57m20-158v-4c-2 0-1-7 1-10l2-3c0-2 5-7 7-7l1-2q1-3 4-3l5-2 9-4q6-2 15-2l16 3 1 1h7v-2l-11-7-2-2q0-2-3-1-3 0-2-2 2-3-6-1l-7-1q1-1-6-1l-8 1h-2l-4 1-5 2q-4 1-6 4l-4 2q-4 0-8 5l-3 5-2 4q-7 8-6 12l1 1 1 1q-1 3-2 1-2-2-3-1-2-2-2 10l1 13v7c1 0 5 10 5 14l2 4 2 2 2 3 3 4 2 3 1 2 6 7q7 7 10 7l3 2 3 2 6 3 10 3 7 2q3 4 4 1l2-1h4l2 1 2 1 4 1q5 0 3-1t8-1l11-1 4-2 5-2 6-2 5-2 5-1 2-2 6-4q5-1 5-2l3-2 7-6 5-5 2-2 1-1q2 0 2-3l3-4 5-2q3-2 2-5l1-3 5-9c0-2 3-7 5-7h2l-1 2q-11 27-37 47c-8 6-26 14-36 17-24 7-49 6-67-3-12-6-27-19-32-28l-5-9q-8-15-7-36c1-9 1-12 5-19q8-20 28-28c6-3 9-3 18-4 18-1 28 3 38 12q7 7 3 9l-10-2q-14-5-26-1-24 6-31 26zm-55-137zl-2 2-4 3-5 3-7 5-5 3-2 1v3q-1 3-3 1-3-1-2 2l-3 1-2 3-3 3-4 4-3 3-2 2-2 2q-2 0-2 3l-2 4-11 14-2 3a36 36 0 0 0-7 18q0 3-2 2l-3 4-2 5-1 4-2 5-2 5-1 5-1 8-2 10q-3 1-1 6v5c-2 2-2 13 1 18v7q-3 3 0 6v3l1 3 2 11 4 16q2 10 4 10l1 4c0 4 7 19 12 26q3 4 3 7c0 3 6 12 9 13l13 13 2 2 2 3q1 4 4 4c1-1 7 4 7 6s5 6 7 6l4 3 4 1 3 3 7 8-2-1-13-9a271 271 0 0 1-48-50 209 209 0 0 1-28-129l11-38c4-11 9-20 19-36a152 152 0 0 1 61-53M427 656l1-2v-1q2 1 6-3l5-3c2 0 8-6 6-7l-6 1h-13l-9-3q-7-2-8-5l-4-3q-3 0-3-2l-4-6-4-6a111 111 0 0 0-21-25l-3-1c-2-2-12-4-22-5l-8 1c-5 3-40 5-38 2l-4-1q-8-1-14-6l-7-2-1-3q0-4-3-4l-2-1-2-4q-5-4-4-8l-2-1-5-5-4-6-2-1h-4l-3-2q-1-3-6-4l-5-1-5-2-6-1-1-1c22 2 34 9 45 24l12 15c5 5 15 10 21 12 4 1 23 1 32-1l28-1c15 4 22 9 35 28 10 16 15 20 24 24 6 3 7 3 14 3q7 0 16-4 16-8 9 1a111 111 0 0 1-31 20M197 825q0-2 2-2c2 0 10-6 13-9l2-4q0-2 3-2 3 1 8-5l8-6 3-3 1-1 3-2c1-3 5-6 23-19q6-4 2-5-4-2 1-3 2 0 2 2l1 2 1-2 2-3q3-4-4-4l-8-2-7-2-3-1c0-1-14-7-17-7l-3-2-6-2-7-3q-3-2-6-2-2 2-6-2-3-3-5-2-3 2-8-2l-9-5-6-2q-1-2-1 1l-1 3v4q2 3 2 6-1 4 1 7v19l3 8q3 2 1 6-1 5 1 7 3 2 2 5v5l1 11q0 9 2 10 3 4 0 5v1l-1-6-14-86-2-9 2-1 39 15 53 20 8 3 6 3-4 3-42 35-40 32-4 3-1-11q0 2 3 2l4 1q1 2 2-2m743-324zc2 1 0 10-3 12l-2 4q0 7-4 9-3 0-1 2t-2 5l-3 5q0 2-3 5l-2 4-7 10-4 6-2 4q-4 1-9 10l-5 6-1 3-1 1c-1-2-4 2-3 4q1 2-2 2h-3l-1 5-1 2h-1q0 2-3 2l-5 4-5 4-4 3-5 3-5 4-3 2-2 2-3 3-5 3-8 4-6 5-5 2-2 1q-1 3-6 2l-4 2-5 2q-2-1-2 1l-4 1-3 1-11 5-10 3-12 2-6 1q-1 3-7 2l-6 1-9 1-9 1 4-2a276 276 0 0 0 58-13 212 212 0 0 0 61-30 268 268 0 0 0 91-121M761 136l-12-2h-7c-2-2-1-2-13-2l-10-2h-4l-4-1-4-1h-9l-7-1-6-1-45 2q-8 2-17 1-10-1-10 2h-1l-2-1v1l-4 1q-12 0-17 3l-4 1c-3-1-13 1-13 2l-12 4-9 2-4 1c-4 0-11 3-13 5q-1 3-5 2-3-2-3 1-1 2-6 2l-8 2-6 3-5 2h-2q-1 2-1-1v-1l7-3q5 0 11-4a483 483 0 0 1 161-28c34 1 56 4 84 11m-33 567h24l-15 3c-37 5-91-1-128-14-16-6-34-14-41-19h3q2-2 5 1c3 2 14 8 17 8l3 2 12 4 14 6 6 1c4 0 14 2 17 4l4 1 10 1 11 2h3l3 1q3 0 1-1h2l5 1h2c2-1 21 0 21 1s6 2 8 0zm31-233v3l1 3-1 6-2 5q-2 2-2 6 1 4-1 5c-5 5-6 7-11 15l-10 11-5 6-3 3-19 9-9 4-5 1-36-1c-5 0-6 0-13-5l-10-5-2-2q1-3-5-7l-6-6-1-4-2-5-1-4-1-1 1-2v-3l1 1 1 5a54 54 0 0 0 48 38 93 93 0 0 0 64-21c15-13 26-35 29-55m25-33-2-4q-3-3-4-10 0-3-2-3-3-1-1-4v-5l-2-3-3-6-4-8-3-4-3-2c0-3-6-10-7-10-2 0-7-5-7-7l-9-7q-3 0-3-2 1-2-5-3l-4-3q-2-3-5-3l-5-2-5-3q-3 1-7-3l-9-3q-7 0-6-3 2-1-3-1-8 1-8-1h-8c-2-2-15-4-24-4l34 2 25 8 28 14q39 27 50 68zM290 617l4-1 8-2q20 0 21-2l2-1 3-2q2-4 6-2c2 3 8 4 9 3 1-2 8 0 9 1l2 2c5 0 16 8 16 11l8 9 2 4q1 4 4 4l5 4q3 3 7 3l3 2 2 2 1 2 13 1 11 1v1q-11 3-23-1-18-7-28-22l-6-7-1-1c0-5-12-11-24-13-8-1-29 0-31 2a62 62 0 0 1-23 2m659-223 2 1 1-3v-2h2l2 2q1 4-3 4-2 0-1 2l1 2 1 5v5l1 1v7l-2 1 1 3 1 4 1 4v18l-1 5-1 7-1 7q-3 2-1 4 0 6-4 7h-1l2-5c4-14 6-36 4-53zm-307-61h-5l-9 2-9 1-4 1-5 1-5 1-5 2-5 1q-5-1-9 3l-8 3-5 2-4 1h-2l-1 2h-4q9-6 23-10l12-5 5-1 6-1q12-3 34-3m38 333zc0 1-13 1-19-1l-8-1q-3 2-5-1-5-3-14-3c-9 0-11 0-15-2l-9-3q-10-3-9-5l-4-3 4 2 10 3 6 2 3 1a207 207 0 0 0 60 10M222 535l-1 1q-4 3-9 1h-7q-1-2-4-1t-1-4c0-5 5-15 9-18v-1c-2 0 1-6 3-7l3-2-13 30 9 1zm556-36-1-2q-1-3 2-6 3-1 1-3c-1-1 0-8 1-10l1-7q0-6 2-7l1-2a96 96 0 0 1-7 37m169-20 1 1v8l-2 2q-2-1-2 1v2c2 0 1 7 0 7h-3l1-4zM453 638q2-2-1-3l-4 3zm8-454q3-3 4-1 0 2-3 2-4 2-1-1m-44 460 1-1 1 1q-1 2-2 0m443-460v-1l2 1-1 1zm24 70 1-1 1 1-1 1zM524 604l1-1 1 1-1 1zm-153 14 1-1 1 1-1 1zm486 4 1-1 1 1-1 1zm-295 47 3 2z"/></svg>